<?xml version="1.0" standalone="no"?>
<!DOCTYPE svg PUBLIC "-//W3C//DTD SVG 1.1//EN" "http://www.w3.org/Graphics/SVG/1.1/DTD/svg11.dtd" >
<svg xmlns="http://www.w3.org/2000/svg">
<metadata>Generated by IcoMoon</metadata>
<defs>
<font id="aspxfrontend" horiz-adv-x="512">
<font-face units-per-em="512" ascent="480" descent="-32" />
<missing-glyph horiz-adv-x="512" />
<glyph unicode="&#x20;" d="" horiz-adv-x="256" />
<glyph unicode="&#xe600;" d="M27.534 298.368h97.138v-340.010h-97.138v340.010zM363.456 322.083c-58.837 0-101.241-41.415-115.598-64.726l-0.334 10.666-1.422 54.62h-72.853c0-32.284 0-77.077 0-121.43v-242.858h97.131v194.297c0 10.204-0.726 48.825 3.243 55.545 7.751 13.12 20.935 24.427 51.050 24.427 39.445 0 67.143-34.155 67.143-79.972v-194.29l97.145 0.071v210.204c0.007 104.711-53.803 153.444-125.504 153.444zM85.632 468.295c-35.114 0-58.098-24.029-58.098-55.282 0-30.521 22.251-55.26 56.662-55.26 36.594 0 58.809 24.74 58.809 55.26-0.69 31.261-22.215 55.282-57.373 55.282z" />
<glyph unicode="&#xe601;" d="M456.796 411.719c13.369 3.136 23.73 10.311 29.184 23.666 4.231 10.382 1.7 23.289-5.71 29.753-6.599 5.767-14.378 6.030-22.386 4.615-12.202-2.154-21.881-8.846-29.966-18.233-1.188-1.394-2.304-2.866-3.577-4.48-4.644 5.234-10.162 8.313-16.981 8.298-6.827-0.014-12.402-2.923-16.903-8.263-0.42 0.327-0.541 0.391-0.647 0.512-0.377 0.477-0.733 1.010-1.116 1.494-9.252 11.748-20.658 19.719-35.698 21.177-6.3 0.619-12.373-0.206-17.635-4.288-7.744-6.030-11.001-18.695-7.197-29.155 5.17-14.222 15.822-21.86 29.81-25.13 11.805-2.752 23.389-1.322 34.858 2.090 1.017 0.313 2.432 0.142 3.378-0.37 7.31-3.982 14.62-4.21 21.881-0.071 1.422 0.81 2.567 0.846 4.053 0.391 11.421-3.413 22.926-4.771 34.653-2.005zM362.311 427.456c-4.729 2.461-8.455 5.974-10.382 11.129-1.486 3.996-0.192 6.87 3.67 8.505 3.705 1.579 7.502 1.202 11.228 0.106 7.232-2.126 12.892-6.698 17.92-12.21 0.327-0.377 0.576-0.931 0.647-1.43 0.356-2.624 0.626-5.262 0.974-8.32-8.156-0.576-16.32-1.813-24.057 2.219zM428.345 425.33c0.32 2.994 0.598 5.703 0.932 8.406 0.050 0.434 0.327 0.896 0.611 1.209 5.568 6.151 11.89 11.214 20.146 12.722 2.816 0.498 6.002 0.221 8.775-0.541 4.153-1.138 5.533-4.551 3.826-8.683-3.058-7.51-8.96-11.563-16.455-13.155-5.902-1.266-11.868-0.675-17.834 0.042zM319.239 283.868c0-10.837 5.945-16.932 16.498-16.918 15.147 0.014 30.308 0.007 45.483 0.007h11.164v67.62h-73.145v-50.71zM422.315 266.965h2.454c18.454 0 36.906 0 55.346 0.007 8.974 0.007 15.296 6.521 15.31 15.737 0.036 8.647 0.029 17.28 0.036 25.927v25.877h-73.145v-67.548zM326.528 402.524c-8.448-0.043-14.563-6.514-14.62-15.19-0.078-12.082-0.036-24.199-0.036-36.295 0.022-5.739 2.88-8.64 8.541-8.64 23.26 0 46.535-0.007 69.796-0.007 0.733 0 1.472 0.086 2.226 0.135v59.918c-0.498 0.057-0.718 0.106-0.946 0.106-21.654-0.007-43.321 0.071-64.96-0.028zM502.762 386.816c-0.014 1.785-0.249 3.641-0.768 5.319-2.134 6.798-7.466 10.425-15.175 10.446-15.616 0.022-31.232 0.014-46.834 0.014h-17.721v-60.075c0.803-0.042 1.465-0.106 2.147-0.106h70.023c5.49 0.014 8.356 2.951 8.356 8.59 0.022 11.933 0.036 23.872-0.029 35.812zM335.865 55.232c-18.482 23.005-81.294 50.538-100.772 57.678-3.613 1.308-7.261 4.018-9.614 7.068-6.237 8.185-4.835 27.008 2.041 34.659 17.152 19.115 28.828 41.209 35.989 65.778 6.457 22.187 8.185 44.651 3.385 67.363-5.71 26.873-19.798 47.894-44.48 60.871-18.98 9.97-39.289 12.643-60.394 9.507-19.811-2.958-37.106-11.043-51.036-25.65-16.995-17.821-24.362-39.716-25.209-63.744-1.529-43.306 13.078-81.074 41.258-113.686 12.189-14.087 7.325-35.363-9.863-42.332-11.982-4.842-72.306-34.098-87.936-47.822-9.401-8.249-18.446-17.095-21.468-29.703-1.628-6.805-1.358-14.123-1.55-21.212-0.234-8.889 2.965-16.768 9.408-22.762 4.786-4.43 10.19-8.483 15.9-11.598 17.913-9.7 37.661-13.539 57.536-16.548 29.462-4.452 59.207-5.084 89.351-5.589 30.635 0.604 61.689 1.202 92.43 6.279 18.397 3.050 36.587 7.033 53.198 15.978 10.567 5.675 20.039 12.822 23.197 25.159 1.344 5.269 1.038 10.973 1.458 16.483 0.988 13.255-4.274 24.156-12.829 33.82z" />
<glyph unicode="&#xe602;" d="M385.152 323.591c33.514 7.872 59.484 25.863 73.173 59.349 10.603 26.019 4.274 58.397-14.308 74.574-16.526 14.45-36.046 15.125-56.121 11.584-30.62-5.411-54.883-22.187-75.143-45.724-2.966-3.506-5.774-7.182-8.981-11.236-11.627 13.134-25.443 20.843-42.553 20.807s-31.083-7.332-42.375-20.707c-1.053 0.81-1.365 0.967-1.621 1.28-0.939 1.209-1.834 2.51-2.809 3.741-23.197 29.469-51.783 49.45-89.486 53.099-15.837 1.529-31.054-0.534-44.231-10.759-19.427-15.111-27.598-46.862-18.062-73.088 12.963-35.662 39.658-54.813 74.759-63.005 29.596-6.891 58.624-3.321 87.403 5.241 2.524 0.775 6.080 0.341 8.448-0.918 18.333-9.991 36.665-10.56 54.869-0.178 3.563 2.026 6.45 2.126 10.169 0.988 28.608-8.583 57.472-11.968 86.87-5.049zM148.26 363.051c-11.847 6.173-21.184 14.962-26.019 27.918-3.712 10.005-0.498 17.195 9.188 21.326 9.302 3.961 18.809 3.008 28.16 0.263 18.119-5.334 32.298-16.804 44.928-30.613 0.804-0.939 1.429-2.34 1.621-3.584 0.882-6.578 1.558-13.191 2.439-20.864-20.466-1.465-40.924-4.551-60.316 5.554zM313.813 357.717c0.81 7.517 1.5 14.293 2.346 21.070 0.128 1.081 0.803 2.247 1.522 3.029 13.974 15.431 29.803 28.118 50.517 31.894 7.047 1.266 15.033 0.583 22.016-1.337 10.411-2.866 13.874-11.413 9.6-21.767-7.666-18.83-22.478-28.999-41.28-33.002-14.784-3.158-29.753-1.692-44.722 0.114zM40.263 124.181c0-40.363 0-80.747 0-121.138 0-27.164 14.912-42.446 41.373-42.403 37.974 0.043 75.975 0.014 114.006 0.014 9.302 0 18.653 0 28.004 0 0 57.002 0 113.223 0 169.529-61.206 0-121.97 0-183.388 0 0.007-2.482 0.007-4.238 0.007-6.002zM298.695-39.317c2.339 0 4.274 0 6.151 0 46.258 0 92.53 0 138.766 0.014 22.486 0.014 38.35 16.334 38.379 39.459 0.092 21.668 0.064 43.321 0.092 64.988 0 21.483 0 42.937 0 64.889-61.639 0-122.553 0-183.389 0 0-56.647 0-112.839 0-169.351zM58.532 300.537c-21.177-0.092-36.508-16.32-36.636-38.073-0.185-30.308-0.093-60.679-0.093-90.98 0.057-14.372 7.232-21.654 21.426-21.654 58.326 0 116.658-0.029 174.998-0.029 1.806 0 3.677 0.206 5.575 0.334 0 50.318 0 100.075 0 150.194-1.244 0.149-1.806 0.285-2.361 0.285-54.315 0-108.629 0.17-162.909-0.078zM500.387 261.163c-0.036 4.459-0.618 9.102-1.927 13.312-5.348 17.053-18.716 26.162-38.051 26.205-39.154 0.042-78.293 0.029-117.418 0.029-14.713 0-29.44 0-44.43 0 0-50.525 0-100.409 0-150.628 2.026-0.106 3.683-0.249 5.39-0.249 58.51 0 117.021 0 175.552 0 13.774 0.022 20.935 7.396 20.935 21.532 0.078 29.938 0.114 59.862-0.050 89.799z" />
<glyph unicode="&#xe603;" d="M497.721 54.002c-18.276 22.762-80.413 49.998-99.677 57.053-3.577 1.294-7.19 3.982-9.507 6.99-6.173 8.106-4.786 26.716 2.012 34.283 16.974 18.901 28.515 40.761 35.598 65.067 6.386 21.945 8.099 44.167 3.349 66.631-5.646 26.582-19.584 47.374-44.004 60.21-18.774 9.863-38.862 12.508-59.733 9.401-19.598-2.93-36.7-10.923-50.489-25.372-16.803-17.629-24.093-39.282-24.931-63.054-1.514-42.838 12.935-80.192 40.811-112.448 12.053-13.938 7.253-34.979-9.75-41.877-11.854-4.793-71.524-33.728-86.983-47.303-9.309-8.156-18.247-16.91-21.234-29.376-1.621-6.734-1.344-13.974-1.529-20.985-0.234-8.789 2.93-16.59 9.309-22.521 4.729-4.38 10.077-8.391 15.73-11.47 17.714-9.593 37.248-13.39 56.903-16.37 29.149-4.402 58.567-5.027 88.391-5.525 30.3 0.597 61.020 1.188 91.428 6.208 18.197 3.015 36.188 6.962 52.622 15.808 10.454 5.611 19.819 12.679 22.94 24.889 1.337 5.212 1.038 10.851 1.443 16.306 0.967 13.12-4.238 23.908-12.7 33.458zM232.014 371.015l-97.607 97.43v-71.822h-128.875v-51.228h128.875v-71.815z" />
<glyph unicode="&#xe604;" d="M256.173 73.141l-143.552 140.454 146.003 142.848-2.624 2.585-146.010-142.848-0.153 0.154-2.611-2.56 146.343-143.2 2.605 2.567zM53.856 214.312l255.271-255.469h8.409v112.006h-8.409v-103.43l-245.965 246.585 245.965 246.585v-100.519h8.409v109.261h-8.409l-255.27-255.021z" />
<glyph unicode="&#xe605;" d="M194.381 70.575l146.349 143.194-2.611 2.56-0.154-0.154-146.010 142.848-2.637-2.579 146.003-142.848-143.552-140.454 2.611-2.567zM389.6 218.824l-0.013-0.007-250.765 250.515h-8.41v-109.254h8.41v100.512l245.965-246.586-245.965-246.585v103.43h-8.41v-112.013h8.41l255.27 255.469-4.493 4.519z" />
<glyph unicode="&#xe606;" d="M509.142 325.404c-7.125 3.591-14.286 7.182-21.433 10.766-7.837 3.939-15.723 7.858-23.559 11.776-56.718 28.43-113.43 56.896-170.212 85.298-2.162 1.053-3.015 2.254-3.158 4.75-0.988 18.909-18.382 32.363-36.679 28.572-12.075-2.524-21.824-12.067-23.978-23.495-2.432-12.871 2.574-24.938 13.248-31.865 10.368-6.784 23.815-6.734 34.141 0.441 1.942 1.351 3.257 1.202 5.184 0.206 24.675-12.43 49.43-24.825 74.183-37.191 6.627-3.342 13.291-6.684 20.188-10.162-2.901-5.696-5.625-11.015-8.49-16.626-18.567 9.287-36.864 18.454-55.587 27.847 0.284-1.131 0.377-1.834 0.654-2.496 16.782-45.34 33.593-90.645 50.339-135.971 0.726-1.863 1.614-2.574 3.705-2.574 22.713 0.093 45.447 0.128 68.153 0 2.269 0 3.698 0.746 5.091 2.468 16.128 19.733 32.356 39.389 48.548 59.058 7.488 9.152 14.998 18.269 22.642 27.598-1.145 0.612-2.034 1.145-2.979 1.6zM260.046 418.254c-10.297 0.022-18.503 8.221-18.503 18.418-0.022 10.19 8.298 18.418 18.56 18.418 10.389 0 18.916-8.455 18.774-18.589-0.156-10.105-8.583-18.297-18.83-18.247zM382.009 207.936c-2.986 1.223-6.258 1.998-9.622 2.219-2.404 0.128-4.871-0.036-7.346-0.426-4.594-0.832-8.754-2.574-12.302-4.999-0.27-0.171-0.548-0.363-0.761-0.555-0.043-0.036-0.071-0.036-0.071-0.078-7.104-5.234-11.776-13.433-12.31-22.762v-0.221c-0.043-0.363-0.071-0.711-0.071-1.081v-0.526c0-0.206 0-0.448 0.029-0.668 0.448-14.265 11.079-26.681 25.287-29.099 7.139-1.195 14.115-0.235 20.48 3.428 7.623 4.43 12.445 10.795 14.834 18.844 0.654 2.461 1.017 4.971 1.017 7.623 0 1.892-0.178 3.698-0.505 5.462-1.913 10.418-9.074 18.958-18.659 22.841zM370.311 161.28c-10.354 0-18.823 8.434-18.738 18.652 0.086 10.070 8.49 18.247 18.794 18.212 10.304-0.029 18.596-8.306 18.596-18.432 0-10.112-8.406-18.404-18.652-18.432zM464.59 207.936c-3.008 1.223-6.229 1.998-9.628 2.219-2.411 0.128-4.836-0.036-7.325-0.426-4.579-0.832-8.754-2.574-12.31-4.999-0.284-0.171-0.534-0.363-0.761-0.555-0.029-0.036-0.057-0.036-0.078-0.078-7.097-5.234-11.762-13.433-12.295-22.762v-0.221c-0.036-0.363-0.064-0.711-0.064-1.081v-0.526c0-0.206 0-0.448 0.029-0.668 0.455-14.265 11.079-26.681 25.252-29.099 7.168-1.195 14.151-0.235 20.522 3.428 7.609 4.43 12.43 10.795 14.834 18.844 0.64 2.461 1.002 4.971 1.002 7.623 0 1.892-0.163 3.698-0.526 5.462-1.885 10.418-9.053 18.958-18.652 22.841zM452.899 161.28c-10.354 0-18.851 8.434-18.738 18.652 0.086 10.070 8.498 18.247 18.802 18.212 10.311-0.029 18.589-8.306 18.589-18.432 0.007-10.112-8.434-18.404-18.652-18.432zM334.243 57.571c-18.745 23.332-82.446 51.264-102.208 58.503-3.662 1.322-7.367 4.082-9.75 7.168-6.322 8.306-4.893 27.392 2.077 35.15 17.394 19.392 29.234 41.792 36.494 66.717 6.542 22.506 8.298 45.29 3.428 68.317-5.788 27.257-20.082 48.576-45.113 61.731-19.25 10.112-39.851 12.828-61.255 9.642-20.089-3.001-37.632-11.2-51.762-26.019-17.23-18.077-24.704-40.277-25.564-64.647-1.55-43.918 13.262-82.226 41.842-115.3 12.359-14.293 7.431-35.875-9.998-42.944-12.146-4.899-73.337-34.582-89.188-48.498-9.536-8.363-18.709-17.337-21.774-30.123-1.657-6.905-1.379-14.322-1.571-21.511-0.234-9.017 3.008-17.017 9.543-23.082 4.85-4.502 10.325-8.611 16.128-11.762 18.162-9.849 38.194-13.738 58.346-16.789 29.888-4.515 60.053-5.155 90.631-5.668 31.069 0.611 62.564 1.223 93.746 6.372 18.659 3.086 37.106 7.125 53.959 16.206 10.724 5.753 20.324 12.999 23.531 25.514 1.358 5.348 1.053 11.122 1.479 16.726 0.995 13.433-4.345 24.49-13.021 34.297z" />
<glyph unicode="&#xe607;" d="M267.3 177.728l-115.015 114.823v-84.644h-151.872v-60.366h151.872v-84.63zM151.773 446.691v-95.538l54.827-54.72v95.431h153.6v-212.572l151.388-116.38v383.779zM152.704 35.491h358.89v-55.517h-358.89v55.517z" />
<glyph unicode="&#xe608;" d="M36.779 316.451c72.995-0.014 145.984-0.007 218.98-0.007 0 0.007 0 0.014 0 0.021 73.188 0 146.375 0.007 219.563 0 19.733-0.007 34.062 13.838 34.134 33.401 0.099 27.171 0.092 54.357-0.106 81.529-0.043 4.374-0.647 8.982-2.126 13.070-5.084 14.002-17.002 21.334-33.956 21.341-111.623 0.036-223.254 0.050-334.877 0.057-33.785 0-67.555 0.092-101.334-0.1-20.146-0.121-34.325-13.71-34.503-33.202-0.256-27.563-0.32-55.139-0.022-82.695 0.213-19.854 14.45-33.415 34.247-33.415zM509.418 72.64c-0.142 22.087-13.582 35.264-35.875 35.271-145.031 0.057-290.055 0.064-435.086 0.057-22.236 0-36.032-13.866-36.025-36.003 0.014-25.43 0.633-50.887-0.135-76.295-0.633-21.334 14.848-37.255 36.85-37.042 72.412 0.683 144.825 0.256 217.245 0.256 72.803-0.007 145.607-0.050 218.404 0.035 21.219 0.022 34.489 13.276 34.61 34.517 0.149 26.404 0.163 52.8 0.014 79.204zM472.932 286.627c-72.206 0.007-144.419 0-216.626 0 0-0.014 0-0.022 0-0.043-72.597 0-145.195 0.022-217.792 0-22.372-0.014-36.004-13.554-36.018-35.783-0.035-25.806-0.035-51.634 0-77.447 0.022-21.959 13.554-35.726 35.492-35.74 145.202-0.057 290.389-0.029 435.584-0.014 22.421 0 35.818 13.348 35.868 35.812 0.036 25.422-0.022 50.852 0.022 76.281 0.036 23.758-12.914 36.928-36.53 36.935z" />
<glyph unicode="&#xe609;" d="M294.962 466.979c-85.447 0.057-170.887 0.064-256.313-0.007-23.161-0.022-36.238-13.049-36.274-36.067-0.092-55.531 0-111.069-0.092-166.599-0.035-22.698 13.305-36.238 36.096-36.238 42.517-0.014 85.042 0 127.573 0 43.101 0 86.215-0.064 129.322 0.022 21.447 0.036 35.136 13.518 35.171 34.787 0.086 56.306 0.057 112.618-0.043 168.931-0.043 21.646-13.682 35.15-35.442 35.172zM294.606 198.037c-86.243 0.071-172.48 0.050-258.695 0.022-19.264-0.014-33.479-14.073-33.522-33.5-0.114-56.91-0.092-113.813 0.078-170.716 0.014-4.558 0.711-9.437 2.461-13.596 5.987-14.336 17.351-20.594 32.682-20.565 42.93 0.086 85.846 0.029 128.768 0.029 42.724 0 85.454-0.035 128.178 0.014 22.428 0.022 35.875 13.469 35.882 35.812 0.014 55.552 0.014 111.097 0 166.649-0.014 22.457-13.269 35.84-35.833 35.854zM509.561 430.94c-0.007 22.378-13.526 35.94-35.925 36.039-26.034 0.114-52.067 0.142-78.094 0.050-21.611-0.086-35.264-13.923-35.264-35.485-0.007-72.654 0-145.301 0-217.955 0.022 0 0.036 0 0.050 0 0-73.038-0.014-146.077 0.022-219.115 0.007-20.736 13.255-34.496 34.012-34.709 27.001-0.27 53.995-0.263 80.995 0.106 5.44 0.078 11.328 1.337 16.199 3.705 14.663 7.154 18.176 20.302 18.154 35.527-0.149 143.95-0.099 287.894-0.149 431.837z" />
<glyph unicode="&#xe60a;" d="M2.973 163.356l324.267 10.084v-133.881l183.403 166.898-183.403 166.898v-133.867l-324.267 10.012v-86.144z" />
<glyph unicode="&#xe60b;" d="M505.614 189.753c-9.123 19.043-18.858 37.782-28.252 56.69-5.021 10.098-9.834 20.288-14.998 30.969-31.957-16.092-63.502-31.957-95.139-47.865 1.046-2.070 1.785-3.563 2.538-5.035 17.266-33.579 34.631-67.094 51.74-100.75 10.183-20.018 17.721-40.995 18.788-63.637 0.469-9.949-0.818-19.99-1.308-29.881 5.938 6.642 12.402 13.539 18.51 20.75 18.226 21.539 35.129 44.075 45.788 70.435 4.324 10.674 6.556 22.201 9.742 33.337 0 4.672 0 9.337 0 14.009-2.425 7.005-4.217 14.322-7.41 20.978zM29.824 150.222c20.679-10.652 42.866-15.062 65.963-15.673 2.966-0.086 4.402 1.152 5.788 3.548 11.748 20.125 23.609 40.185 35.442 60.267 0.903 1.522 1.885 2.994 2.901 4.608 9.735-4.985 18.987-9.721 29.234-14.976-0.683 1.671-0.868 2.24-1.138 2.766-15.296 29.554-30.556 59.136-46.037 88.605-0.825 1.565-3.541 2.958-5.426 3.015-36.963 1.166-73.934 2.126-110.919 3.101-0.811 0.029-1.628-0.249-3.221-0.512 11.911-8.462 23.111-16.42 34.41-24.441-1.55-2.902-2.866-5.206-4.039-7.595-10.389-21.148-24.626-40.37-31.715-63.161 0-2.325 0-4.665 0-6.998 4.039-15.765 14.99-25.458 28.758-32.555zM208.931 114.716c-37.639-0.014-75.292-0.363-112.924 0.057-32.853 0.37-64.284 6.101-90.794 28.594 0.576-1.877 0.925-3.478 1.55-4.957 6.478-15.303 12.423-30.884 19.634-45.831 10.432-21.682 23.104-42.034 40.469-59.022 14.926-14.606 31.95-23.51 53.817-23.125 27.79 0.462 55.609-0.818 83.413-1.33 3.584-0.071 7.175-0.007 10.866-0.007 0 35.385 0 70.158 0 105.622-2.411 0-4.217 0-6.030 0zM192.59 293.34c18.838 29.86 37.518 59.819 56.59 89.529 6.464 10.077 13.454 19.89 21.042 29.127 11.833 14.428 25.877 26.397 43.086 34.183 3.67 1.65 7.531 2.858 12.459 4.714-3.101 0.775-4.95 1.387-6.855 1.7-13.781 2.24-27.527 4.978-41.401 6.535-25.75 2.894-51.534 3.498-77.028-2.582-20.75-4.921-37.831-14.898-48.746-34.176-6.315-11.143-13.725-21.661-20.757-32.384-9.942-15.175-19.989-30.279-30.386-46.023 29.923-18.603 59.385-36.928 88.946-55.31 1.244 1.913 2.169 3.286 3.050 4.686zM270.877 378.837c-2.048-2.944-1.856-5.063-0.277-8.085 10.937-20.942 21.682-41.998 32.455-63.033 0.569-1.102 0.953-2.332 1.458-3.613-9.152-5.44-17.984-10.702-27.321-16.256 0.967-0.626 1.209-0.917 1.472-0.938 32.526-2.745 65.060-5.333 97.558-8.37 4.836-0.448 7.075 1.124 9.529 4.814 19.606 29.561 39.403 59.008 59.122 88.484 0.932 1.386 1.735 2.844 3.171 5.226-13.93-5.76-26.645-11.015-39.602-16.377-1.266 2.226-2.404 4.231-3.541 6.243-9.628 17.117-19.115 34.326-28.95 51.321-7.139 12.33-18.226 18.154-32.298 15.943-7.417-1.166-14.954-3.705-21.611-7.197-21.469-11.214-37.454-28.515-51.164-48.163zM400.476 116.85c-16.121 1.11-32.256 1.949-48.377 2.916-9.102 0.541-18.204 1.145-27.997 1.764 0 10.823 0 21.156 0 32.626-1.387-1.692-1.934-2.29-2.404-2.93-19.015-26.738-37.981-53.504-57.11-80.156-1.849-2.582-1.202-4.416-0.057-6.777 12.43-25.778 24.803-51.577 37.206-77.362 3.933-8.171 7.901-16.32 11.861-24.462 0.349 0.128 0.697 0.27 1.038 0.398 1.678 11.861 3.69 23.68 4.85 35.605 0.49 4.971 2.652 5.348 6.685 5.226 19.812-0.604 39.63-1.138 59.449-1.351 16.391-0.192 27.89 8.356 32.825 23.986 1.095 3.47 1.991 7.075 2.404 10.695 3.2 27.428-4.174 52.764-15.822 77.149-0.626 1.337-2.93 2.56-4.551 2.674zM240.498 281.628c-4.565-7.879-57.92-100.288-60.565-104.903-3.306-5.774 0.896-11.613 6.542-11.613 4.345 0 115.065 0 121.366 0 6.222 0 9.238 6.45 6.5 11.37-3.719 6.72-57.351 99.463-60.701 105.145-2.994 5.084-10.141 5.184-13.142 0z" />
<glyph unicode="&#xe60c;" d="M482.4 241.103c-11.488 5.767-23.014 11.539-34.49 17.312-12.64 6.342-25.305 12.665-37.926 18.963-91.29 45.76-182.573 91.558-273.965 137.274-3.482 1.709-4.857 3.635-5.095 7.654-1.575 30.445-29.587 52.096-59.034 45.997-19.418-4.064-35.097-19.424-38.566-37.811-3.917-20.711 4.141-40.141 21.331-51.29 16.685-10.918 38.304-10.822 54.938 0.704 3.136 2.176 5.242 1.945 8.333 0.333 39.731-20 79.565-39.949 119.399-59.853 10.669-5.383 21.389-10.778 32.486-16.352-4.666-9.184-9.037-17.741-13.664-26.771-29.875 14.951-59.322 29.696-89.478 44.832 0.48-1.849 0.621-2.982 1.043-4.025 27.021-72.986 54.080-145.901 81.049-218.829 1.152-3.021 2.579-4.154 5.952-4.154 36.544 0.135 73.139 0.199 109.689 0 3.654 0 5.952 1.203 8.173 3.962 25.965 31.776 52.089 63.385 78.144 95.065 12.058 14.72 24.154 29.408 36.442 44.403-1.805 0.973-3.238 1.837-4.762 2.585zM81.478 390.543c-16.576 0.038-29.779 13.235-29.779 29.639-0.045 16.397 13.344 29.639 29.882 29.639 16.73 0 30.439-13.619 30.208-29.92-0.231-16.262-13.817-29.453-30.311-29.357zM277.76 52.021c-4.8 1.978-10.041 3.219-15.475 3.591-3.853 0.192-7.815-0.064-11.808-0.685-7.399-1.331-14.112-4.135-19.827-8.064-0.429-0.262-0.857-0.576-1.235-0.877-0.058-0.064-0.096-0.064-0.096-0.122-11.443-8.461-18.963-21.632-19.821-36.659v-0.365c-0.058-0.576-0.096-1.139-0.096-1.735v-0.851c0-0.346 0-0.736 0.038-1.088 0.723-22.95 17.824-42.912 40.697-46.803 11.482-1.939 22.713-0.403 32.973 5.51 12.237 7.123 19.987 17.376 23.865 30.323 1.037 3.968 1.613 8.013 1.613 12.275 0 3.040-0.288 5.952-0.813 8.774-3.040 16.781-14.573 30.522-30.016 36.774zM258.95-23.076c-16.672 0-30.285 13.575-30.15 30.048 0.135 16.199 13.671 29.351 30.246 29.293 16.576-0.058 29.926-13.363 29.926-29.696-0.013-16.25-13.536-29.6-30.022-29.645zM410.707 52.021c-4.858 1.978-10.041 3.219-15.526 3.591-3.865 0.192-7.757-0.064-11.776-0.685-7.373-1.331-14.099-4.135-19.821-8.064-0.474-0.262-0.87-0.576-1.229-0.877-0.058-0.064-0.109-0.064-0.135-0.122-11.399-8.461-18.925-21.632-19.782-36.659v-0.365c-0.058-0.576-0.103-1.139-0.103-1.735v-0.851c0-0.346 0-0.736 0.045-1.088 0.711-22.95 17.817-42.912 40.64-46.803 11.552-1.939 22.777-0.403 33.017 5.51 12.25 7.123 20.026 17.376 23.865 30.323 1.037 3.968 1.625 8.013 1.625 12.275 0 3.040-0.301 5.952-0.864 8.774-2.976 16.781-14.522 30.522-29.959 36.774zM391.885-23.076c-16.672 0-30.349 13.575-30.163 30.048 0.135 16.199 13.683 29.351 30.259 29.293 16.595-0.058 29.92-13.363 29.92-29.696 0-16.25-13.581-29.6-30.016-29.645zM493.235 409.205l-62.95 58.093v-46.586h-111.296v-22.989h111.296v-46.592z" />
<glyph unicode="&#xe60d;" d="M474.010 239.484c-11.424 5.741-22.912 11.482-34.336 17.229-12.55 6.304-25.178 12.601-37.735 18.867-90.841 45.543-181.683 91.117-272.621 136.615-3.463 1.696-4.832 3.609-5.063 7.616-1.581 30.297-29.44 51.846-58.745 45.773-19.341-4.045-34.957-19.328-38.407-37.625-3.885-20.608 4.134-39.942 21.229-51.046 16.608-10.861 38.131-10.765 54.681 0.704 3.117 2.17 5.216 1.933 8.294 0.327 39.526-19.904 79.174-39.75 118.816-59.558 10.611-5.357 21.286-10.726 32.326-16.275-4.64-9.133-8.999-17.658-13.6-26.637-29.734 14.88-59.040 29.555-89.037 44.615 0.461-1.837 0.601-2.97 1.030-4 26.887-72.633 53.817-145.19 80.647-217.779 1.152-3.002 2.566-4.135 5.92-4.135 36.377 0.135 72.787 0.192 109.165 0 3.642 0 5.926 1.19 8.147 3.949 25.837 31.603 51.827 63.072 77.76 94.599 11.987 14.649 24.026 29.261 36.25 44.186-1.786 0.979-3.2 1.837-4.723 2.579zM75.034 388.2c-16.499 0.045-29.632 13.171-29.632 29.498-0.045 16.32 13.273 29.498 29.728 29.498 16.653 0 30.304-13.555 30.061-29.773-0.237-16.192-13.741-29.312-30.157-29.222zM270.375 51.324c-4.787 1.971-10.010 3.213-15.405 3.565-3.84 0.199-7.782-0.051-11.757-0.678-7.36-1.318-14.035-4.122-19.731-8.013-0.423-0.269-0.857-0.576-1.222-0.883-0.058-0.064-0.096-0.064-0.096-0.115-11.392-8.409-18.867-21.523-19.731-36.461v-0.365c-0.058-0.589-0.102-1.133-0.102-1.735v-0.851c0-0.339 0-0.717 0.045-1.088 0.723-22.816 17.741-42.701 40.499-46.566 11.43-1.927 22.611-0.397 32.806 5.491 12.192 7.091 19.904 17.286 23.757 30.182 1.031 3.942 1.619 7.968 1.619 12.205 0 3.027-0.288 5.933-0.813 8.736-3.040 16.672-14.509 30.368-29.869 36.576zM251.648-23.409c-16.595 0-30.15 13.504-30.016 29.907 0.135 16.128 13.613 29.203 30.112 29.152 16.493-0.051 29.766-13.299 29.766-29.529 0-16.199-13.453-29.459-29.863-29.529zM402.656 51.324c-4.825 1.971-9.997 3.213-15.437 3.565-3.859 0.199-7.731-0.051-11.719-0.678-7.334-1.318-14.035-4.122-19.725-8.013-0.461-0.269-0.858-0.576-1.223-0.883-0.064-0.064-0.103-0.064-0.135-0.115-11.347-8.409-18.822-21.523-19.687-36.461v-0.365c-0.051-0.589-0.103-1.133-0.103-1.735v-0.851c0-0.339 0-0.717 0.051-1.088 0.723-22.816 17.735-42.701 40.435-46.566 11.488-1.927 22.675-0.397 32.87 5.491 12.192 7.091 19.904 17.286 23.757 30.182 1.037 3.942 1.613 7.968 1.613 12.205 0 3.027-0.288 5.933-0.864 8.736-2.983 16.672-14.471 30.368-29.837 36.576zM383.936-23.409c-16.601 0-30.214 13.504-30.010 29.907 0.135 16.128 13.606 29.203 30.099 29.152 16.512-0.051 29.773-13.299 29.773-29.529 0-16.199-13.51-29.459-29.863-29.529z" />
<glyph unicode="&#xe60e;" d="M279.533 448c0 0-100.478 0-133.97 0-60.060 0-116.585-45.503-116.585-98.211 0-53.863 40.941-97.333 102.044-97.333 4.249 0 8.378 0.085 12.421 0.376-3.965-7.593-6.801-16.144-6.801-25.021 0-14.969 8.052-27.105 18.234-37.012-7.693 0-15.121-0.224-23.226-0.224-74.391 0.001-131.65-47.379-131.65-96.51 0-48.389 62.771-78.657 137.167-78.657 84.812 0 131.653 48.122 131.653 96.514 0 38.8-11.448 62.036-46.843 87.067-12.108 8.572-35.265 29.418-35.265 41.672 0 14.36 4.098 21.434 25.714 38.323 22.156 17.312 37.836 41.651 37.836 69.958 0 33.703-15.010 66.549-43.186 77.386h42.477l29.98 21.672zM232.74 120.271c1.063-4.486 1.642-9.103 1.642-13.814 0-39.1-25.196-69.655-97.487-69.655-51.421 0-88.558 32.552-88.558 71.65 0 38.321 46.063 70.222 97.482 69.666 12-0.127 23.184-2.058 33.335-5.345 27.913-19.413 47.938-30.381 53.586-52.502zM150.409 266.112c-34.519 1.032-67.318 38.613-73.276 83.93-5.958 45.333 17.185 80.021 51.694 78.995 34.505-1.037 67.319-37.407 73.279-82.729 5.953-45.33-17.195-81.229-51.697-80.196zM416 352v96h-32v-96h-96v-32h96v-96h32v96h96v32z" />
<glyph unicode="&#xe60f;" d="M287.935-32h-95.935v256h-64v88.225l64 0.029-0.104 51.976c0 71.976 19.517 115.77 104.299 115.77h70.588v-88.242h-44.115c-33.016 0-34.603-12.328-34.603-35.342l-0.131-44.162h79.345l-9.352-88.225-69.927-0.029-0.065-256z" />
<glyph unicode="&#xe610;" d="M512 382.791c-18.838-8.354-39.082-14.001-60.33-16.54 21.686 13 38.343 33.585 46.186 58.115-20.298-12.039-42.778-20.78-66.705-25.49-19.16 20.415-46.461 33.17-76.673 33.17-58.011 0-105.044-47.029-105.044-105.039 0-8.233 0.929-16.25 2.72-23.939-87.3 4.382-164.701 46.2-216.509 109.753-9.042-15.514-14.223-33.558-14.223-52.809 0-36.444 18.544-68.596 46.73-87.433-17.219 0.546-33.416 5.271-47.577 13.139-0.010-0.438-0.010-0.878-0.010-1.321 0-50.894 36.209-93.348 84.261-103-8.813-2.4-18.094-3.686-27.674-3.686-6.769 0-13.349 0.66-19.764 1.886 13.368-41.73 52.16-72.103 98.126-72.948-35.95-28.175-81.243-44.967-130.458-44.967-8.479 0-16.84 0.497-25.058 1.47 46.486-29.805 101.701-47.197 161.021-47.197 193.211 0 298.868 160.062 298.868 298.872 0 4.554-0.103 9.084-0.305 13.59 20.528 14.81 38.336 33.31 52.418 54.374z" />
<glyph unicode="&#xe611;" d="M0 178.337c0 2.329 0 4.673 0 6.993 3.489 6.549 9.119 10.637 15.512 14.095 10.832 5.856 21.477 12.039 32.209 18.067 126.645 71.121 253.259 142.282 379.95 213.325 23.315 13.083 46.88 25.691 70.327 38.516 2.002 0 4.002 0 6.004 0 2.671-3.006 5.334-6.004 7.998-8.995 0-3.006 0-6.004 0-9.002-1.012-5.716-2.134-11.416-2.99-17.155-6.829-45.245-13.581-90.497-20.395-135.74-6.191-41.132-12.444-82.257-18.627-123.398-6.712-44.59-13.293-89.188-20.123-133.762-2.476-16.166-16.556-23.853-31.632-17.709-1.838 0.755-3.668 1.573-5.553 2.235-43.289 15.185-86.611 30.3-129.861 45.611-3.738 1.324-5.466 0.639-7.476-2.702-12.966-21.524-25.971-43.025-39.365-64.292-10.014-15.901-20.637-31.414-30.986-47.097-1.339 0-2.671 0-4.002 0-6.767 2.414-9.065 7.413-9.049 14.328 0.125 37.823 0.265 75.661-0.063 113.484-0.101 12.202 3.606 22.077 11.938 31.118 73.318 79.508 146.401 159.22 219.548 238.884 1.269 1.386 2.538 2.764 3.808 4.15-1.651-0.257-2.687-1.035-3.691-1.861-93.806-77.156-187.619-154.305-281.34-231.555-3.341-2.757-5.941-3.341-10.139-1.838-37.916 13.503-75.895 26.866-113.968 39.91-7.959 2.741-14.274 6.76-18.035 14.391zM155.497 113.819l168.401 149.906-148.933-154.773z" />
<glyph unicode="&#xe612;" d="M475.425 213.33c-22.281 0-32.856-15.709-36.567-32.294-13.361-59.695-70.094-150.567-182.861-150.567-100.988 0-182.853 81.894-182.853 182.853 0 100.974 81.873 182.853 182.853 182.853 40.966 0 78.54-13.769 108.981-36.568h-35.839c-20.18 0-36.575-16.388-36.575-36.575s16.395-36.575 36.575-36.575h109.718c20.173 0 36.567 16.387 36.567 36.575v109.725c0 20.188-16.402 36.575-36.567 36.575-20.188 0-36.582-16.387-36.582-36.575v-9.475c-41.454 29.005-91.85 46.049-146.279 46.049-141.37 0-255.996-114.619-255.996-256.004 0-141.399 114.626-256.003 255.996-256.003 182.467 0 256.003 173.708 256.003 217.138-0.007 26.584-19.429 38.865-36.575 38.865zM328.161 201.354c0-39.606-32.107-71.714-71.714-71.714-39.606 0-71.714 32.107-71.714 71.714 0 39.606 32.107 71.714 71.714 71.714 39.606 0 71.714-32.107 71.714-71.714z" />
<glyph unicode="&#xe613;" d="M459.363 82.745c-23.488 29.234-103.317 64.228-128.078 73.308-4.594 1.664-9.238 5.113-12.217 8.988-7.922 10.411-6.144 34.325 2.589 44.053 21.803 24.292 36.637 52.374 45.746 83.606 8.199 28.195 10.404 56.754 4.295 85.618-7.26 34.154-25.159 60.871-56.526 77.362-24.128 12.672-49.942 16.071-76.764 12.082-25.18-3.762-47.154-14.038-64.861-32.604-21.596-22.649-30.962-50.482-32.042-81.017-1.941-55.040 16.619-103.047 52.438-144.498 15.488-17.906 9.316-44.942-12.53-53.803-15.232-6.151-91.904-43.349-111.766-60.786-11.954-10.489-23.445-21.731-27.285-37.753-2.077-8.647-1.728-17.942-1.97-26.966-0.298-11.293 3.769-21.312 11.961-28.921 6.080-5.632 12.942-10.788 20.21-14.741 22.763-12.33 47.865-17.216 73.131-21.034 37.44-5.66 75.257-6.457 113.565-7.104 38.94 0.761 78.407 1.529 117.483 7.978 23.382 3.868 46.493 8.938 67.62 20.302 13.44 7.218 25.472 16.298 29.483 31.978 1.707 6.692 1.33 13.945 1.856 20.957 1.223 16.861-5.476 30.706-16.334 42.994z" />
<glyph unicode="&#xe614;" d="M115.513 155.849h186.010v-23.845h-186.010v23.845zM115.513 93.843h243.244v-23.845h-243.244v23.845zM470.391 469.333h-62.299v-141.296c0-11.854-9.608-21.462-21.462-21.462h-259.935c-11.855 0-21.463 9.608-21.463 21.462v141.296h-62.306c-23.702 0-42.925-19.224-42.925-42.925v-426.149c0-23.702 19.224-42.925 42.925-42.925h427.466c23.702 0 42.925 19.223 42.925 42.925v426.149c0 23.702-19.224 42.925-42.925 42.925zM404.064 46.632c0-11.854-9.608-21.462-21.462-21.462h-286.17c-11.847 0-21.463 9.608-21.463 21.462v133.541c0 11.854 9.615 21.462 21.463 21.462h286.17c11.854 0 21.462-9.608 21.462-21.462v-133.541zM466.070 57.371c0-3.957-3.205-7.154-7.154-7.154h-28.617c-3.949 0-7.154 3.198-7.154 7.154v45.308c0 3.957 3.205 7.154 7.154 7.154h28.617c3.949 0 7.154-3.198 7.154-7.154v-45.308zM308.676 342.346h46.274c3.957 0 7.154 3.205 7.154 7.154v75.191c0 3.957-3.198 7.154-7.154 7.154h-46.274c-3.957 0-7.154-3.198-7.154-7.154v-75.191c0-3.949 3.198-7.154 7.154-7.154z" horiz-adv-x="514" />
<glyph unicode="&#xe615;" d="M309.198 243.484c-2.482-10.275-12.238-17.97-23.971-17.97-13.589 0-24.626 10.326-24.626 23.054 0 8.996 5.568 16.711 13.603 20.508-5.76 1.642-11.868 2.546-18.197 2.546-34.375 0-62.243-26.105-62.243-58.283 0-32.185 27.869-58.282 62.243-58.282 34.382 0 62.25 26.098 62.25 58.283-0.014 11.050-3.349 21.34-9.060 30.144zM499.485 240.839c-43.314 42.119-136.057 117.788-243.485 117.788-107.413 0-200.142-75.655-243.463-117.774-16.718-16.256-16.718-38.777-0.014-55.019 43.314-42.133 136.064-117.788 243.477-117.788s200.156 75.655 243.456 117.781c16.711 16.242 16.726 38.763 0.029 55.012zM256 117.44c-56.562 0-102.414 42.93-102.414 95.886s45.852 95.886 102.414 95.886 102.414-42.923 102.414-95.879-45.853-95.894-102.414-95.894z" />
<glyph unicode="&#xe616;" d="M455.123 71.109h-398.239c-31.38 0-56.884-25.504-56.884-56.892s25.504-56.884 56.884-56.884h398.232c31.387 0 56.884 25.504 56.884 56.884s-25.49 56.892-56.877 56.892zM455.123 270.217h-398.239c-31.38 0-56.884-25.497-56.884-56.884 0-31.394 25.504-56.892 56.884-56.892h398.232c31.387 0 56.884 25.504 56.884 56.892 0.007 31.388-25.49 56.884-56.877 56.884zM455.123 469.333h-398.239c-31.38 0-56.884-25.497-56.884-56.884s25.504-56.892 56.884-56.892h398.232c31.387 0 56.884 25.504 56.884 56.892s-25.49 56.884-56.877 56.884z" />
<glyph unicode="&#xe617;" d="M472.922 469.333h-433.837c-21.585 0-39.085-17.493-39.085-39.085v-433.837c0-21.592 17.5-39.085 39.085-39.085h433.837c21.585 0 39.085 17.493 39.085 39.085v433.837c0 21.592-17.5 39.085-39.085 39.085zM132.087 308.278c22.675 0 41.039-18.364 41.039-41.025 0-22.654-18.364-41.039-41.039-41.039-22.647 0-41.018 18.385-41.018 41.039 0 22.661 18.371 41.025 41.018 41.025zM94.969 118.403l104.286 116.257 36.969-36.225 67.99 83.522 116.731-163.555h-325.976z" />
<glyph unicode="&#xe618;" d="M452.978 442.908c11.056-66.285 6.553-146.861-16.401-229.969-31.832-115.26-91.602-208.2-156.664-255.606 149.958 2.447 270.791 124.702 270.791 275.242 0 84.361-37.971 159.822-97.726 210.333zM0 232.575c0-61.95 20.469-119.106 54.984-165.113-15.025 69.298-11.905 156.779 13.083 247.264 16.087 58.226 39.294 110.756 66.706 154.607-80.683-48.011-134.773-136.049-134.773-236.758zM284.57 349.318c26.18 0 51.031 21.272 55.404 47.773 4.366 26.227-13.664 47.774-39.891 47.774-26.449 0-51.298-21.539-55.665-47.774-4.374-26.502 13.648-47.773 40.15-47.773zM303.77 98.965c0.642 5.36 0.214 9.589-6.714 9.589-10.238 0-38.805-44.387-51.956-44.387-12.938 0-1.522 23.872-1.522 23.872s30.967 79.177 45.908 125.353c12.272 37.681-12.464 48.607-21.623 51.268-3.548 0.481-7.142 0.696-10.919 0.696-36.802 0-78.534-26.097-106.849-69.818-0.657-4.932 0.221-9.152 6.698-9.152 10.246 0 39.026 44.394 51.964 44.394 12.938 0 1.575-23.872 1.575-23.872s-28.788-79.62-45.946-125.092c-16.944-45.044 2.424-56.192 12.28-59.098 41.679-8.938 94.507 20.729 126.446 74.696 0.007 0.68 0.214 1.132 0.658 1.552z" horiz-adv-x="551" />
<glyph unicode="&#xe619;" d="M255.943 178.531l228.331 201.607c-1.565 0.235-2.93 0.932-4.487 0.932h-447.801c-0.995 0-1.814-0.49-2.809-0.555l226.766-201.984zM511.765 349.077c0 3.811-0.932 7.303-2.19 10.752l-161.238-142.379 159.175-139.3c2.439 4.558 4.252 9.486 4.252 15.047v255.879zM2.496 361.451c-1.614-3.811-2.496-8-2.496-12.373v-255.872c0-4.679 1.123-9.053 2.866-13.063l160.739 137.814-161.109 143.495zM324.16 196.089l-68.338-60.295-68.16 60.665-157.362-134.933c0.555 0 1.052-0.313 1.686-0.313h446.358l-154.183 134.876z" />
<glyph unicode="&#xe61a;" d="M270.217 378.154c-61.791-61.762-123.553-123.502-185.234-185.359-15.619-15.64-26.956-34.158-34.26-54.961-16.376-46.601-32.453-93.298-48.663-139.951-4.202-12.19-2.054-23.155 7.187-32.111 9.043-8.716 19.784-10.486 31.754-6.226 43.070 15.356 86.264 30.56 129.407 45.735 22.595 7.966 43.267 19.158 60.356 36.226 62.89 62.774 125.701 125.65 188.519 188.504 0.75 0.757 1.303 1.719 1.798 2.345-49.427 49.464-98.592 98.643-148.106 148.215-1.122-0.932-1.981-1.616-2.76-2.418zM168.553 44.653c-26.548-9.517-53.104-19.099-79.66-28.384-1.922-0.656-5.316 0.102-6.83 1.486-7.697 7.158-15.022 14.658-22.288 22.223-1.202 1.245-2.184 3.837-1.675 5.293 9.714 28.085 19.711 56.075 29.614 84.079 0.197 0.517 0.582 0.969 1.078 1.748 22.049-25.070 23.498-25.805 55.368-27.837-1.871-24.342 7.441-43.231 30.233-55.915-2.65-1.216-4.208-2.082-5.84-2.694zM296.197 276.424c6.866-6.83 13.194-13.136 19.82-19.74-0.969-1.034-2.141-2.454-3.481-3.786-42.24-42.276-84.466-84.604-126.866-126.684-3.276-3.255-8.068-5.789-12.517-6.837-5.512-1.318-9.998 2.119-12.641 6.998-2.577 4.682-2.512 9.575 0.379 14.119 1.304 2.090 3.051 3.881 4.798 5.643 42.218 42.284 84.473 84.539 126.764 126.793 1.325 1.325 2.745 2.556 3.743 3.495zM496.425 377.513c-26.14 26.825-52.675 53.293-79.55 79.332-11.935 11.512-26.876 15.59-42.961 10.026-8.505-2.941-17.555-6.531-24.219-12.349-18.495-16.209-35.854-33.728-53.643-50.752-0.233-0.211-0.233-0.707-0.233-0.721 49.347-49.398 98.628-98.65 147.975-148.004 13.26 13.085 27.204 25.922 39.918 39.852 7.762 8.49 14.745 18.124 20.17 28.267 10.376 19.405 7.719 38.839-7.457 54.349z" horiz-adv-x="510" />
<glyph unicode="&#xe61b;" d="M44.19-42.667c-7.696 3.347-16.099 5.641-22.919 10.255-14.089 9.564-21.236 23.538-21.245 40.78-0.044 56.145-0.026 112.29-0.018 168.435 0.009 58.474 0.018 116.957 0.026 175.44 0.009 1.789 0 3.577 0 5.951 7.802 0 15.081 0 22.369 0 46.652 0 93.303 0.044 139.955-0.124 2.47-0.009 5.579-1.222 7.315-2.949 28.064-27.772 55.995-55.685 83.766-83.748 1.673-1.7 2.488-4.968 2.488-7.501 0.142-80.472 0.106-160.952 0.133-241.415 0.009-2.666-0.097-5.402 0.514-7.943 1.957-8.253 9.555-13.346 18.022-12.389 8.537 0.947 14.62 7.704 14.647 16.746 0.089 27.825 0.017 55.64 0.017 83.465 0.009 42.817 0.017 85.644 0.026 128.461 0 1.125 0 2.25 0 4.667 2.17-2.037 3.577-3.312 4.924-4.641 16.020-16.020 32.084-31.996 47.971-48.149 1.532-1.567 2.772-4.216 2.772-6.367 0.159-56.313 0.204-112.626 0.106-168.94-0.036-21.9-16.445-42.507-37.734-48.024-2.4-0.62-4.764-1.328-7.156-2.001-85.315-0.009-170.658-0.009-255.982-0.009zM55.569 152.335c0-21.838 0-43.668 0-65.488 0-22.166-0.071-44.332 0.026-66.488 0.044-11.291 7.173-18.748 17.242-18.393 9.847 0.337 16.233 7.829 16.233 18.96 0 69.641 0 139.291 0 208.941 0 18.49 0.079 36.99-0.097 55.481-0.088 8.785-5.978 15.48-14.204 16.834-7.607 1.257-15.569-3.41-18.056-11.043-0.921-2.772-1.089-5.889-1.107-8.847-0.053-43.322-0.035-86.653-0.035-129.957zM189.184 151.795c-0.018 0-0.026 0-0.026 0-0.009 43.995 0.009 87.981-0.026 131.968-0.009 11.017-6.792 18.509-16.587 18.571-9.776 0.053-16.613-7.439-16.667-18.447-0.062-11.327 0-22.662 0-33.988 0-76.469-0.026-152.956 0-229.442 0.009-11.158 6.668-18.482 16.552-18.5 10.007-0.017 16.755 7.598 16.755 18.898-0.009 43.649 0 87.3 0 130.94zM136.183 469.333c18.819-4.507 34.688-13.93 47.9-28.090 6.934-7.43 14.302-14.444 21.493-21.635 49.131-49.14 98.218-98.316 147.411-147.385 12.345-12.309 21.334-26.488 24.468-43.747 2.063-11.398 1.611-23.007-1.709-34.139-1.514-5.057-4.827-9.582-7.297-14.311-93.365 93.356-185.925 185.916-278.786 278.768 5.287 5.42 12.504 7.979 20.27 9.458 1.434 0.274 2.834 0.717 4.242 1.089 7.35-0.009 14.682-0.009 22.007-0.009zM245.639 414.455c6.456 6.19 14.674 10.467 24.114 9.981 4.87-0.248 10.654-2.648 14.169-6.004 18.526-17.702 36.742-35.732 54.462-54.224 10.219-10.662 7.864-27.541-3.959-38.602-29.454 29.481-58.908 58.952-88.787 88.849z" horiz-adv-x="379" />
<glyph unicode="&#xe61c;" d="M139.484 215.526h-12.404v126.271l45.335-8.659c-7.321 17.51-9.785 37.272-5.952 57.313 3.826 20.041 13.398 37.5 26.662 51.081l-142.082 27.148c-20.262 3.87-39.831-9.424-43.694-29.686l-6.695-35.028c-3.877-20.255 9.417-39.824 29.679-43.694l74.749-14.273v-130.472h-12.412c-20.637 0-37.352-16.716-37.352-37.353v-46.806c0-20.63 16.715-37.345 37.352-37.345h46.807c20.63 0 37.352 16.716 37.352 37.345v46.807c0.007 20.63-16.715 37.353-37.345 37.353zM499.382 383.026l-142.067 27.14c7.313-17.517 9.777-37.279 5.952-57.319-3.833-20.034-13.397-37.5-26.67-51.081l47.932-9.153v-182.377h-18.452c-25.964 0-47.012-21.041-47.012-46.998v-58.916c0-25.964 21.041-47.012 47.012-47.012h58.894c25.971 0 47.012 21.041 47.012 47.012v58.916c0 25.949-21.034 46.998-47.012 46.998h-18.445v178.168l72.159-13.78c20.262-3.87 39.817 9.417 43.687 29.679l6.688 35.028c3.862 20.261-9.417 39.825-29.679 43.694zM332.889 372.13c0-38.959-31.582-70.541-70.541-70.541s-70.541 31.582-70.541 70.541c0 38.959 31.582 70.541 70.541 70.541 38.959 0 70.541-31.582 70.541-70.541z" horiz-adv-x="530" />
<glyph unicode="&#xe61d;" d="M469.099-42.667c-10.978 0-21.962 4.19-30.336 12.565l-426.199 426.184c-16.756 16.755-16.756 43.923 0 60.679s43.923 16.755 60.679 0l426.184-426.184c16.763-16.755 16.763-43.923 0-60.672-8.367-8.382-19.351-12.572-30.329-12.572zM42.908-42.667c-10.985 0-21.962 4.19-30.343 12.572-16.756 16.755-16.756 43.923 0 60.672l426.199 426.191c16.755 16.763 43.938 16.756 60.672 0 16.763-16.755 16.763-43.923 0-60.679l-426.184-426.191c-8.382-8.374-19.366-12.565-30.343-12.565z" />
<glyph unicode="&#xe61e;" d="M198.947 24.035l0.349-0.37 312 312.014-67.306 67.321-245.042-245.070-131.086 131.094-68.558-66.077 199.282-199.282z" horiz-adv-x="511" />
<glyph unicode="&#xe61f;" d="M512 184.778l-256 198.713-256-198.714v81.019l256 198.713 256-198.714zM448 192v-192h-128v128h-128v-128h-128v192l192 144z" />
<glyph unicode="&#xe620;" d="M490.594 399.946c-71.816 10.325-151.166 16.054-234.593 16.054-83.43 0-162.778-5.729-234.597-16.054-13.765-53.863-21.404-113.375-21.404-175.946 0-62.57 7.639-122.083 21.404-175.945 71.819-10.326 151.168-16.055 234.597-16.055 83.427 0 162.776 5.729 234.593 16.055 13.766 53.862 21.406 113.375 21.406 175.945 0 62.571-7.64 122.083-21.406 175.946zM192.001 128v192l160-96-160-96z" />
<glyph unicode="&#xe621;" d="M287.998 320l63.999-63.999-127.997-127.997-63.999 63.999zM500.763 331.248l-36.758 36.758-16.004-16.004c-8.189-8.19-19.505-13.255-32-13.255-24.994 0-45.257 20.261-45.257 45.255 0 12.501 5.070 23.819 13.267 32.009l15.994 15.993-36.759 36.758c-14.984 14.984-39.504 14.984-54.488 0l-297.52-297.519c-14.983-14.984-14.983-39.505 0-54.488l36.76-36.759 15.981 15.982c8.191 8.203 19.515 13.276 32.022 13.276 24.994 0 45.255-20.262 45.255-45.255 0-12.503-5.070-23.82-13.267-32.011l-15.992-15.993 36.758-36.759c14.983-14.983 39.504-14.983 54.488 0l297.52 297.52c14.982 14.988 14.982 39.508 0 54.492zM224.001 64.002l-128 128 192 192 128-128-192-192z" />
<glyph unicode="&#xe622;" d="M567.38 226.312c0-61.025-49.473-110.506-110.506-110.506h-69.104v52.494c-1.372 59.749 56.339 61.112 82.17 63.879-37.414 45.889-97.654 66.432-144.059 66.432-91.644 0-148.975-53.857-148.975-144.337v-38.476h-66.392c-61.048 0.008-110.514 49.481-110.514 110.514 0 56.442 42.33 102.974 96.957 109.657 3.964 58.234 67.518 91.382 117.356 63.205 26.473 42.139 73.393 70.159 126.831 70.159 78.642 0 143.147-60.62 149.244-137.692 44.653-14.208 76.992-55.983 76.992-105.329zM346.463 168.3c0 42.361 8.332 66.757 43.955 78.277-27.63 11.639-172.181 39.673-172.181-92.303 0-44.32 0-81.123 0-81.123h-51.526l115.636-115.818 115.635 115.818h-51.519c0 0 0 58.123 0 95.149z" horiz-adv-x="568" />
<glyph unicode="&#xe623;" d="M0 272v-96c0-8.836 7.164-16 16-16h480c8.836 0 16 7.164 16 16v96c0 8.836-7.164 16-16 16h-480c-8.836 0-16-7.164-16-16z" />
<glyph unicode="&#xe624;" d="M160 288h64v-64h-64zM256 288h64v-64h-64zM352 288h64v-64h-64zM64 96h64v-64h-64zM160 96h64v-64h-64zM256 96h64v-64h-64zM160 192h64v-64h-64zM256 192h64v-64h-64zM352 192h64v-64h-64zM64 192h64v-64h-64zM416 480v-32h-64v32h-224v-32h-64v32h-64v-512h480v512h-64zM448 0h-416v352h416v-352z" />
<glyph unicode="&#xe625;" d="M240 480v0c132.548 0 240-86.957 240-194.224s-107.452-194.224-240-194.224c-12.729 0-25.223 0.81-37.417 2.355-51.553-51.347-111.086-60.554-170.583-61.907v12.567c32.126 15.677 58 44.233 58 76.867 0 4.553-0.356 9.024-1.015 13.397-54.279 35.607-88.985 89.994-88.985 150.945 0 107.267 107.452 194.224 240 194.224zM498 44.657c0-27.971 18.157-52.449 46-65.886v-10.771c-51.563 1.159-98.893 9.051-143.571 53.063-10.57-1.325-21.397-2.020-32.429-2.020-47.735 0-91.704 12.879-126.807 34.52 72.337 0.253 140.63 23.427 192.417 65.336 26.104 21.126 46.697 45.913 61.207 73.674 15.383 29.433 23.183 60.791 23.183 93.203 0 5.224-0.225 10.418-0.629 15.584 36.285-29.967 58.629-70.811 58.629-115.838 0-52.244-30.079-98.861-77.12-129.382-0.571-3.748-0.88-7.58-0.88-11.483z" horiz-adv-x="576" />
<glyph unicode="&#xe626;" d="M310.627 41.373l160 160c12.497 12.496 12.497 32.758 0 45.255l-160 160c-12.497 12.496-32.758 12.496-45.255 0-12.497-12.497-12.497-32.758 0-45.255l105.373-105.373h-306.745c-17.673 0-32-14.327-32-32s14.327-32 32-32h306.745l-105.373-105.373c-6.248-6.248-9.372-14.438-9.372-22.627s3.124-16.379 9.372-22.627c12.497-12.497 32.758-12.497 45.255 0z" />
<glyph unicode="&#xe627;" d="M416 352l96 96-32 32-96-96h-224v96h-64v-96h-96v-64h96v-256h256v-96h64v96h96v64h-96v224zM160 320h160l-160-160v160zM192 128l160 160v-160h-160z" />
<glyph unicode="&#xe628;" d="M66.189 403.144c-88.255-88.255-88.255-231.852 0-320.114 73.079-73.072 186.195-87.435 275.084-34.931 1.562 0.92 3.053 1.947 4.593 2.909l78.663-78.67c20.012-20.004 52.454-20.004 72.466 0.014 20.012 20.005 20.012 52.447 0 72.458l-78.67 78.663c0.97 1.541 1.997 3.045 2.924 4.607 52.496 88.882 38.134 201.992-34.945 275.063-88.255 88.255-231.859 88.255-320.114 0zM359.838 164.331c-13.201-22.358-32.413-41.578-54.843-54.843-60.848-35.937-138.313-26.074-188.377 23.977-60.441 60.449-60.441 158.802 0 219.243 60.448 60.449 158.809 60.456 219.257 0 50.058-50.050 59.913-127.508 23.962-188.377zM184.291 346.689c0 0 91.585 4.1 123.022-41.008l-10.94-45.108c0.007 0.007-43.667 61.404-112.082 86.115z" />
<glyph unicode="&#xe629;" d="M201.373 406.627l-160-160c-12.497-12.496-12.497-32.758 0-45.254l160-160c12.497-12.496 32.758-12.496 45.255 0 12.498 12.496 12.498 32.758 0 45.254l-105.374 105.373h306.746c17.673 0 32 14.326 32 32 0 17.673-14.327 32-32 32h-306.746l105.373 105.373c6.248 6.248 9.373 14.438 9.373 22.627s-3.124 16.379-9.372 22.627c-12.498 12.497-32.758 12.497-45.255 0z" />
<glyph unicode="&#xe62a;" d="M255.154 465.913l-187.342-219.534h-67.811v-290.425h512v290.425h-69.511l-187.335 219.534zM229.91 13.262l-64.512 64.512 26.845 31.651 33.885-33.877 94.073 94.080 33.038-33.038-123.328-123.328zM105.507 246.734l149.646 175.353 149.575-175.274-299.221-0.078zM461.853 378.076l50.147 45.625-50.147 45.632v-36.594l-88.647 2.731v-23.552l88.647 2.759z" />
<glyph unicode="&#xe62b;" d="M496 288h-176v176c0 8.836-7.164 16-16 16h-96c-8.836 0-16-7.164-16-16v-176h-176c-8.836 0-16-7.164-16-16v-96c0-8.836 7.164-16 16-16h176v-176c0-8.836 7.164-16 16-16h96c8.836 0 16 7.164 16 16v176h176c8.836 0 16 7.164 16 16v96c0 8.836-7.164 16-16 16z" />
<glyph unicode="&#xe62c;" d="M409.6 435.2h-307.2c-28.16 0-51.2-23.040-51.2-51.2v-307.2c0-28.16 23.040-51.2 51.2-51.2h307.2c28.16 0 51.2 23.040 51.2 51.2v307.2c0 28.16-23.040 51.2-51.2 51.2zM384 204.8h-256v51.2h256v-51.2z" />
<glyph unicode="&#xe62d;" d="M409.6 435.2h-307.2c-28.16 0-51.2-23.040-51.2-51.2v-307.2c0-28.16 23.040-51.2 51.2-51.2h307.2c28.16 0 51.2 23.040 51.2 51.2v307.2c0 28.16-23.040 51.2-51.2 51.2zM384 204.8h-102.4v-102.4h-51.2v102.4h-102.4v51.2h102.4v102.4h51.2v-102.4h102.4v-51.2z" />
<glyph unicode="&#xe62e;" d="M460.8 409.6h-244.583c-11.264 0-27.417-6.067-35.891-13.491l-173.977-152.218c-8.473-7.424-8.473-19.559 0-26.983l173.977-152.243c8.474-7.399 24.627-13.466 35.891-13.466h244.583c28.185 0 51.2 23.040 51.2 51.2v256c0 28.16-23.014 51.2-51.2 51.2zM388.889 128l-65.459 65.459-65.408-65.459-36.966 36.941 65.433 65.459-65.433 65.434 36.966 36.966 65.433-65.433 65.433 65.433 36.941-36.966-65.408-65.434 65.433-65.434-36.966-36.966z" />
<glyph unicode="&#xe62f;" d="M432 128c-22.58 0-42.96-9.369-57.506-24.415l-215.502 107.751c0.657 4.126 1.008 8.353 1.008 12.664s-0.351 8.538-1.008 12.663l215.502 107.751c14.546-15.045 34.926-24.414 57.506-24.414 44.183 0 80 35.817 80 80s-35.817 80-80 80-80-35.817-80-80c0-4.311 0.352-8.538 1.008-12.663l-215.502-107.752c-14.546 15.045-34.926 24.415-57.506 24.415-44.183 0-80-35.818-80-80 0-44.184 35.817-80 80-80 22.58 0 42.96 9.369 57.506 24.414l215.502-107.751c-0.656-4.125-1.008-8.352-1.008-12.663 0-44.184 35.817-80 80-80s80 35.816 80 80c0 44.182-35.817 80-80 80z" />
<glyph unicode="&#xe630;" d="M455.161 422.428c-0.064 33.962-10.276 43.925-44.537 44.010-102.805 0.263-205.618 0.256-308.423 0.014-35.705-0.085-45.262-9.906-45.404-46.279-0.27-68.885-0.078-137.763-0.071-206.649 0.007-69.91-0.263-139.819 0.121-209.728 0.185-32.818 11.854-44.629 44.523-44.736 102.805-0.341 205.618-0.313 308.423-0.014 33.245 0.092 45.262 11.555 45.334 43.925 0.32 139.819 0.298 279.638 0.036 419.456zM158.414 0.725c-18.759 0-33.97 15.211-33.97 33.97s15.21 33.97 33.97 33.97 33.97-15.211 33.97-33.97c0-18.766-15.21-33.97-33.97-33.97zM158.414 87.36c-18.759 0-33.97 15.211-33.97 33.97s15.21 33.97 33.97 33.97 33.97-15.211 33.97-33.97-15.21-33.97-33.97-33.97zM158.414 178.923c-18.759 0-33.97 15.211-33.97 33.97 0 18.759 15.21 33.97 33.97 33.97s33.97-15.21 33.97-33.97c0-18.759-15.21-33.97-33.97-33.97zM257.856 0.725c-18.759 0-33.97 15.211-33.97 33.97s15.21 33.97 33.97 33.97c18.759 0 33.97-15.211 33.97-33.97-0.007-18.766-15.211-33.97-33.97-33.97zM257.856 87.36c-18.759 0-33.97 15.211-33.97 33.97s15.21 33.97 33.97 33.97c18.759 0 33.97-15.211 33.97-33.97s-15.211-33.97-33.97-33.97zM257.856 178.923c-18.759 0-33.97 15.211-33.97 33.97 0 18.759 15.21 33.97 33.97 33.97 18.759 0 33.97-15.21 33.97-33.97-0.007-18.759-15.211-33.97-33.97-33.97zM354.83 0.725c-18.759 0-33.97 15.211-33.97 33.97s15.211 33.97 33.97 33.97 33.97-15.211 33.97-33.97c0-18.766-15.211-33.97-33.97-33.97zM354.83 87.36c-18.759 0-33.97 15.211-33.97 33.97s15.211 33.97 33.97 33.97 33.97-15.211 33.97-33.97-15.211-33.97-33.97-33.97zM354.83 178.923c-18.759 0-33.97 15.211-33.97 33.97 0 18.759 15.211 33.97 33.97 33.97s33.97-15.21 33.97-33.97c0-18.759-15.211-33.97-33.97-33.97zM396.438 288.334c-93.689 0-186.475 0-280.91 0 0 39.808 0 78.322 0 118.947 93.76 0 186.496 0 280.91 0 0-39.936 0-78.464 0-118.947z" />
<glyph unicode="&#xe631;" d="M450.887 209.707c-10.212 12.594-23.104 23.012-35.108 34.774 4.459 4.807 7.822 8.156 10.873 11.776 27.058 32.007 33.806 68.345 17.913 106.702-16.334 39.402-47.374 61.362-90.631 61.781-84.95 0.818-169.92 1.678-254.834 0.15-61.319-1.102-103.325-52.729-96.832-113.834 3.498-33.088 22.201-56.413 47.467-75.222-1.472-2.567-1.906-4.416-3.079-5.198-46.23-31.595-52.978-85.604-38.77-121.942 16.875-43.193 53.987-65.251 110.656-65.287 41.927-0.029 83.854-0.014 127.239-0.014 1.821-52.899 3.001-48.967 50.233-49.116 61.134-0.192 122.269 0.476 183.396-0.298 21.226-0.277 31.581 8.69 31.317 29.17-0.868 68.245-15.858 132.26-59.84 186.56zM27.050 322.923c-0.64 40.356 35.157 76.516 75.612 76.388 39.772-0.135 74.347-34.582 74.717-74.461 0.37-41.578-33.657-76.067-75.157-76.16-39.552-0.078-74.546 34.461-75.171 74.233zM101.454 70.706c-39.651 0.022-74.24 34.603-74.425 74.397-0.192 40.746 35.044 75.236 76.494 74.851 40.483-0.37 74.674-34.589 74.226-74.304-0.498-41.92-34.126-74.966-76.295-74.944zM279.502 25.273c-8.832 83.3-23.588 162.425-107.69 208.462 61.618 0 123.37 2.176 184.789-1.28 19.392-1.095 41.23-13.625 56.256-27.222 52.394-47.36 65.942-110.663 68.224-179.968-68.835 0.007-134.926 0.007-201.579 0.007zM100.53 290.923c18.567-1.017 34.133 12.694 35.179 30.99 1.066 18.346-13.006 34.119-31.175 34.973-18.937 0.896-33.82-12.352-34.894-31.061-1.088-18.958 12.11-33.87 30.891-34.902zM102.201 178.873c-18.133-0.263-32.782-15.531-32.59-33.906 0.228-18.901 14.599-33.060 33.322-32.839 18.389 0.221 32.995 15.218 32.818 33.678-0.185 18.304-15.424 33.322-33.55 33.067zM410.375 190.137h-152.149c0 0 8.341-7.559 8.341-15.502h155.733c0 0.007-5.561 12.324-11.925 15.502zM284.637 145.23h155.733c0 0-5.561 12.33-11.918 15.502h-152.156c0 0 8.341-7.552 8.341-15.502zM405.611 130.937h-112.64c0 0 8.356-7.559 8.356-15.502h116.21c0 0-5.568 12.331-11.925 15.502z" />
<glyph unicode="&#xe632;" d="M287.462 198.938c-40.525-40.55-87.475-79.309-106.035-60.723-26.573 26.547-42.931 49.69-101.504 2.637s-13.594-78.438 12.16-104.192c29.696-29.671 140.391-1.562 249.831 107.853 109.389 109.415 137.549 220.135 107.827 249.831-25.728 25.753-57.088 70.707-104.166 12.16s-23.936-74.931 2.637-101.504c18.509-18.586-20.224-65.511-60.749-106.061z" />
<glyph unicode="&#xe633;" d="M355.251 486.4h-198.502c-28.749 0-52.249-23.501-52.249-52.249v-407.501c0-28.723 23.501-52.25 52.249-52.25h198.502c28.749 0 52.25 23.526 52.25 52.25v407.501c0 28.749-23.501 52.25-52.25 52.25zM256-4.711c-20.173 0-36.557 11.699-36.557 26.137s16.384 26.137 36.557 26.137c20.199 0 36.557-11.699 36.557-26.137s-16.358-26.137-36.557-26.137zM365.696 73.677h-219.417v344.807h219.417v-344.807z" />
<glyph unicode="&#xe634;" d="M510.777 245.134c-0.086 24.79-10.873 44.445-31.31 58.524-3.015 2.077-3.925 4.146-3.89 7.581 0.149 14.841-0.050 29.682 0.106 44.523 0.092 8.768-2.986 15.986-9.166 22.137-23.253 23.133-46.457 46.293-69.568 69.561-6.038 6.066-13.027 9.173-21.561 9.166-60.103-0.022-120.199 0.099-180.295-0.036-20.537-0.050-35.619-15.495-35.641-36.053-0.064-44.707-0.007-89.415-0.007-134.13 0-74.937 0.178-149.874-0.1-224.81-0.135-35.435-26.61-61.76-61.952-62.293-17.401-0.263-34.816-0.327-52.217 0.156-5.902 0.156-12.302 1.173-17.494 3.769-8.562 4.274-16.306 10.14-24.285 15.282 0.050-0.284 0.156-1.18 0.398-2.034 9.166-32.384 36.181-52.018 71.51-52.018 117.269 0 234.531-0.029 351.801 0.064 9.123 0.007 18.482-0.185 27.349 1.614 33.657 6.848 56.298 35.086 56.349 69.582 0.092 69.796 0.206 139.606-0.029 209.415zM265.002 40.149c0.050-3.868-1.628-5.774-5.561-5.753-8.050 0.057-16.114 0.092-24.156 0.014-4.16-0.043-6.009 1.799-5.945 5.974 0.1 7.865 0.121 15.744 0 23.609-0.085 4.558 2.126 6.229 6.414 6.073 3.84-0.142 7.687-0.029 11.541-0.029 3.84 0 7.687-0.114 11.534 0.029 4.473 0.156 6.258-1.92 6.18-6.308-0.142-7.858-0.092-15.73-0.007-23.609zM264.995 122.368c-0.007 0-0.022 0-0.036 0 0-4.025-0.014-8.057 0-12.075 0.022-3.577-1.664-5.469-5.312-5.476-8.419-0.014-16.832-0.043-25.251-0.029-3.37 0.007-5.020 1.827-5.028 5.156-0.014 8.419-0.014 16.832 0 25.252 0.007 3.698 2.062 5.219 5.568 5.212 8.242-0.014 16.47-0.007 24.704-0.007 3.598 0 5.376-1.771 5.348-5.411-0.014-4.202 0.007-8.413 0.007-12.622zM264.995 180.323c-0.014-3.676-2.062-5.205-5.582-5.191-8.242 0.022-16.47 0.014-24.704 0-3.641 0-5.355 1.827-5.347 5.418 0.014 4.21 0 8.426 0 12.63 0.014 0 0.022 0 0.042 0 0 4.018 0.014 8.050 0 12.075-0.022 3.584 1.692 5.462 5.326 5.469 8.412 0.014 16.825 0.057 25.251 0.014 3.335-0.007 5.021-1.799 5.021-5.156-0.007-8.413 0.007-16.832-0.007-25.259zM335.346 180.935c0.057-3.84-1.678-5.781-5.596-5.774-8.228 0.029-16.462 0-24.711-0.022-3.655-0.014-5.319 1.856-5.312 5.433 0.022 8.235 0.022 16.469 0 24.711-0.022 3.961 2.070 5.533 5.853 5.504 8.057-0.057 16.099-0.036 24.156 0 3.854 0.014 5.717-1.785 5.646-5.696-0.086-4.025-0.022-8.057-0.022-12.075-0.014 0-0.036 0-0.043 0 0.007-4.025-0.043-8.050 0.029-12.082zM305.586 140.43c3.84-0.086 7.687-0.022 11.534-0.022 4.025 0.007 8.064-0.106 12.075 0.036 4.487 0.149 6.25-1.942 6.173-6.322-0.135-7.865-0.086-15.737 0-23.616 0.043-3.868-1.635-5.767-5.568-5.731-8.057 0.050-16.121 0.092-24.163 0.007-4.167-0.043-5.995 1.82-5.938 5.988 0.106 7.865 0.099 15.744 0 23.609-0.050 4.125 1.678 6.144 5.888 6.051zM335.402 40.284c0.057-4.188-1.877-6.016-6.009-5.909-4.010 0.099-8.043 0.022-12.067 0.022-3.847 0-7.687 0.071-11.527-0.014-4.089-0.099-6.108 1.714-6.087 5.888 0.064 8.057 0.050 16.099 0 24.149-0.022 3.911 1.863 5.654 5.724 5.639 8.050-0.050 16.093-0.050 24.149-0.007 4.195 0.014 5.881-2.105 5.824-6.166-0.106-7.865-0.106-15.737-0.007-23.602zM405.724 192.611c0-4.025-0.022-8.057 0-12.082 0.036-3.634-1.735-5.39-5.362-5.376-8.235 0.029-16.469 0.050-24.718 0.014-3.925-0.007-5.611 1.906-5.568 5.774 0.071 8.057 0.064 16.114 0.007 24.163-0.036 3.897 1.792 5.71 5.668 5.689 8.050-0.043 16.114-0.071 24.156 0.014 4.267 0.043 5.923-2.048 5.81-6.108-0.114-4.018-0.022-8.057-0.022-12.082 0.014-0.007 0.022-0.007 0.029-0.007zM370.098 135.090c0 3.655 1.877 5.326 5.454 5.312 8.228-0.007 16.455 0.014 24.704 0 3.904-0.007 5.539-2.091 5.504-5.888-0.057-8.057-0.050-16.114 0-24.156 0.029-3.918-1.885-5.661-5.738-5.603-4.21 0.071-8.426 0.014-12.622 0.014-3.847 0.007-7.68 0.043-11.527-0.007s-5.781 1.757-5.774 5.632c0.007 8.235 0.014 16.462 0 24.697zM405.76 40.178c0.086-3.84-1.628-5.81-5.554-5.781-8.242 0.029-16.469 0.029-24.718 0-3.683-0.014-5.341 1.856-5.341 5.418 0 8.426-0.043 16.846-0.007 25.273 0.007 3.399 1.92 4.935 5.226 4.935 8.228-0.014 16.469-0.043 24.711-0.022 3.818 0.014 5.767-1.7 5.689-5.654-0.092-4.217-0.022-8.426-0.022-12.637 0-3.847-0.064-7.694 0.014-11.534zM440.512 263.395c-82.197 0-163.968 0-246.080 0-0.1 1.891-0.249 3.484-0.249 5.084 0 47.986 0.007 95.965 0.036 143.943 0.007 8.135 1.309 9.408 9.664 9.415 53.846 0.028 107.676 0.035 161.522 0.042 1.437 0 2.887-0.121 5.142-0.228 0-2.062 0-3.996 0.007-5.923 0-12.452-0.114-24.903 0.043-37.354 0.185-15.63 11.662-26.844 27.307-26.88 14.066-0.036 28.125-0.007 42.61-0.007 0-29.49 0-58.503 0-88.092zM45.931 18.389c15.907-1.806 32.192-1.351 48.221-0.469 7.175 0.398 14.777 3.264 21.091 6.89 17.642 10.154 26.048 26.247 26.112 46.464 0.142 43.591 0.042 87.182 0.036 130.774-0.007 43.776 0.107 87.552-0.042 131.321-0.1 26.731-18.702 48.903-45.035 51.804-15.737 1.742-31.808 1.124-47.702 0.59-10.418-0.341-19.875-4.566-28.011-11.356-13.063-10.902-19.413-24.974-19.456-41.849-0.093-36.999-0.042-73.998-0.036-110.99 0-50.553-0.085-101.106 0.071-151.651 0.078-26.375 18.652-48.555 44.75-51.527zM37.334 339.435h8v-287.111h-8v287.111zM230.186 316.715c58.51 0 116.643 0 174.834 0 0 5.661 0 10.909 0 16.455-58.666 0-116.679 0-174.834 0 0-5.718 0-11.086 0-16.455zM230.066 281.429c58.667 0 116.672 0 174.876 0 0 5.696 0 11.065 0 16.476-58.51 0-116.644 0-174.876 0 0-5.654 0-10.894 0-16.476zM334.663 385.955c-35.228 0-69.781 0-104.483 0 0-5.696 0-11.072 0-16.455 35.050 0 69.731 0 104.483 0 0 5.667 0 10.901 0 16.455z" />
<glyph unicode="&#xe635;" d="M431.702 193.33c-11.748 32.128-18.531 66.994-21.582 101.177-6.166 69.269-40.789 116.067-106.851 137.394-6.414 2.062-12.651 6.606-17.401 11.513-17.166 17.714-41.23 18.012-58.745 1.002-5.824-5.661-13.284-10.688-20.921-13.213-63.545-21.049-99.719-68.089-103.559-135.353-0.79-14.038-1.287-28.267-4.067-41.949-11.862-58.34-25.323-115.876-98.574-125.021 0-22.542 0-43.662 0-66.183 49.408 0 97.934 0 146.482 0 9.053 0 18.126 0 27.193 0h165.070c0.043 0.099 0.078 0.185 0.114 0.284 57.664 0 115.036 0 173.149 0 0 23.211 0 44.864 0 66.318-46.813 6.272-65.18 22.642-80.306 64.029zM183.73 358.947c-21.788-30.066-24.042-64.604-26.446-99.634-0.448-6.72-7.403-12.971-11.35-19.442-2.709 6.656-7.808 13.347-7.722 19.975 0.59 41.949 4.686 83.2 42.119 124.345 1.885-12.288 6.215-21.369 3.399-25.245zM254.286-30.258c43.868-0.74 70.073 24.149 84.459 64.889h-165.070c13.369-39.609 38.422-64.171 80.612-64.889z" />
</font>
</defs>
</svg>
